<?xml version="1.0" encoding="UTF-8"?>
<svg width="60px" height="60px" viewBox="0 0 60 60" version="1.1" xmlns="http://www.w3.org/2000/svg" xmlns:xlink="http://www.w3.org/1999/xlink">
    <!-- Generator: Sketch 52.5 (67469) - http://www.bohemiancoding.com/sketch -->
    <title>logo / option 1 / light</title>
    <desc>Created with Sketch.</desc>
    <defs>
        <path d="M60,18.769 C60,18.052 60,17.336 59.996,16.619 C59.992,16.016 59.985,15.412 59.969,14.809 C59.934,13.494 59.856,12.168 59.623,10.868 C59.386,9.548 58.999,8.32 58.388,7.121 C57.788,5.942 57.005,4.865 56.07,3.93 C55.135,2.996 54.058,2.212 52.879,1.612 C51.681,1.002 50.453,0.615 49.134,0.378 C47.833,0.144 46.507,0.067 45.192,0.031 C44.588,0.015 43.985,0.008 43.381,0.004 C42.665,0 41.948,0 41.231,0 L18.769,0 C18.053,0 17.336,0 16.62,0.004 C16.016,0.008 15.412,0.015 14.809,0.031 C13.494,0.067 12.167,0.144 10.867,0.378 C9.548,0.615 8.32,1.002 7.122,1.612 C5.943,2.212 4.865,2.996 3.931,3.93 C2.996,4.865 2.213,5.942 1.613,7.121 C1.002,8.32 0.615,9.548 0.378,10.868 C0.145,12.168 0.067,13.494 0.032,14.809 C0.016,15.412 0.008,16.016 0.005,16.619 C0,17.336 0,18.052 0,18.769 L0,41.231 C0,41.948 0,42.664 0.005,43.381 C0.008,43.984 0.016,44.588 0.032,45.191 C0.067,46.506 0.145,47.832 0.378,49.132 C0.615,50.452 1.002,51.681 1.613,52.88 C2.213,54.058 2.996,55.135 3.931,56.069 C4.865,57.005 5.943,57.788 7.122,58.388 C8.32,58.998 9.548,59.385 10.867,59.622 C12.167,59.855 13.494,59.934 14.809,59.969 C15.412,59.985 16.016,59.992 16.62,59.996 C17.336,60 18.053,60 18.769,60 L41.231,60 C41.948,60 42.665,60 43.381,59.996 C43.985,59.992 44.588,59.985 45.192,59.969 C46.507,59.934 47.833,59.855 49.134,59.622 C50.453,59.385 51.681,58.998 52.879,58.388 C54.058,57.788 55.135,57.005 56.07,56.069 C57.005,55.135 57.788,54.058 58.388,52.88 C58.999,51.681 59.386,50.452 59.623,49.132 C59.856,47.832 59.934,46.506 59.969,45.191 C59.985,44.588 59.992,43.984 59.996,43.381 C60,42.664 60,41.948 60,41.231 L60,18.769 Z" id="path-1"></path>
    </defs>
    <g id="logo-/-option-1-/-light" stroke="none" stroke-width="1" fill="none" fill-rule="evenodd">
        <g id="App-Icon">
            <mask id="mask-2" fill="white">
                <use xlink:href="#path-1"></use>
            </mask>
            <use id="App-Icon-Mask" fill="#FFFFFF" xlink:href="#path-1"></use>
            <g id="Logo" mask="url(#mask-2)">
                <rect id="bg" fill="#FFFFFF" x="0" y="0" width="60" height="60"></rect>
                <g id="container" transform="translate(14.000000, 12.000000)" fill="#000000" fill-rule="nonzero">
                    <path d="M4.97746407,25.5 L4.97746407,29.8738879 L0.5,27.2153821 L0.5,9.87840787 L4.97746407,12.5368906 L4.97746407,19.9646081 L1.7171073,18.0762469 L1.7171073,19.6116388 L4.97746407,21.5 L4.97746407,23.9646081 L1.7171073,22.0762469 L1.7171073,23.6116388 L4.97746407,25.5 Z M10,27.775487 L12.9774641,29.5 L12.9774641,27.9646081 L10,26.2400951 L10,23.775487 L12.9774641,25.5 L12.9774641,23.9646081 L10,22.2400951 L10,15.5190084 L15.5,18.7846192 L15.5,36.1216707 L10,32.8560316 L10,27.775487 Z M9,32.262279 L6,30.4810212 L6,13.1440187 L9,14.925261 L9,32.262279 Z M0.979358468,9.00011859 L16.0043633,0.0814935689 L31.0206434,8.99988141 L15.9956773,17.9185064 L0.979358468,9.00011859 Z M16.5,18.7846192 L31.5,9.87840787 L31.5,27.2153821 L16.5,36.1216707 L16.5,18.7846192 Z M17.6730268,13.5150212 L8.27138692,8 L7,8.76993797 L16.4016399,14.2849592 L17.6730268,13.5150212 Z M21.1730268,11.5150212 L11.7713869,6 L10.5,6.76993797 L19.9016399,12.2849592 L21.1730268,11.5150212 Z M24.6730268,9.51502118 L15.2713869,4 L14,4.76993797 L23.4016399,10.2849592 L24.6730268,9.51502118 Z M20,20.2057645 L20.0422,30.7364512 L21.4084691,29.8988167 L21.3662691,19.36813 L20,20.2057645 Z M23.5,18.0876345 L23.5422,28.6183212 L24.9084691,27.7806867 L24.8662691,17.25 L23.5,18.0876345 Z M27,16.0876345 L27.0422,26.6183212 L28.4084691,25.7806867 L28.3662691,15.25 L27,16.0876345 Z" id="Path-2"></path>
                </g>
                <g id="sanner" transform="translate(8.000000, 8.000000)" fill="#72C616" fill-rule="nonzero">
                    <path d="M-0.99754435,35.0700376 L0.99754435,34.9299624 C1.1288236,36.7997698 1.40752134,37.8122731 2.01891658,38.9554965 C2.71785938,40.2624209 3.73757909,41.2821406 5.0445245,41.9810947 C6.187661,42.5924788 7.20017163,42.8711723 9.07003762,43.0024556 L8.92996238,44.9975444 C6.78674146,44.8470687 5.50045932,44.4930197 4.10131414,43.7447143 C2.44584621,42.8593705 1.14062949,41.5541538 0.255285586,39.8986857 C-0.49302209,38.4994552 -0.84707323,37.2131945 -0.99754435,35.0700376 Z" id="Stroke-1"></path>
                    <path d="M44.9975433,8.92994684 L43.0024567,9.07005316 C42.8711449,7.20019785 42.59245,6.18768214 41.9810878,5.04452043 C41.282151,3.73760731 40.2624349,2.71788359 38.9555143,2.01891232 C37.8124072,1.40757932 36.7998725,1.12888728 34.9299324,0.997542245 L35.0700676,-0.997542245 C37.2133195,-0.84699972 38.4995885,-0.492964562 39.8987194,0.255289876 C41.5541822,1.14066954 42.859385,2.44588206 43.7447188,4.10133131 C44.4929933,5.50049983 44.8470366,6.78676096 44.9975433,8.92994684 Z" id="Stroke-3"></path>
                    <path d="M8.9299482,-0.997543355 L9.0700518,0.997543355 C7.20017065,1.12885448 6.18768496,1.40754173 5.04450205,2.01891297 C3.73757773,2.71785306 2.71785829,3.73756859 2.01891065,5.04449701 C1.40751817,6.18768008 1.12882738,7.20018347 0.997544332,9.07003789 L-0.997544332,8.92996211 C-0.847069291,6.7867576 -0.493025041,5.50048972 0.255286444,4.10129519 C1.14063057,2.445833 2.44584757,1.14062101 4.10131574,0.255280474 C5.50050416,-0.493001843 6.78673535,-0.847037695 8.9299482,-0.997543355 Z" id="Stroke-5"></path>
                    <path d="M35.0700368,44.9975444 L34.9299632,43.0024556 C36.7998387,42.8711731 37.8123097,42.5924878 38.9554782,41.9810842 C40.2623969,41.2821417 41.2821124,40.2624223 41.9810638,38.9554769 C42.5924124,37.8124025 42.8711115,36.7998673 43.0024578,34.9299316 L44.9975422,35.0700684 C44.8469974,37.2133273 44.4929496,38.4996101 43.7446849,39.8986845 C42.8593445,41.5541524 41.5541325,42.8593694 39.8986913,43.7447023 C38.4995144,44.4930275 37.2132702,44.8470697 35.0700368,44.9975444 Z" id="Stroke-7"></path>
                </g>
            </g>
        </g>
    </g>
</svg>